HIERARCHY
ROOT Hips
{
	OFFSET 0.000000 0.000000 0.000000
	CHANNELS 6 Xposition Yposition Zposition Zrotation Yrotation Xrotation 
	JOINT LHipJoint
	{
		OFFSET 0.000000 0.000000 0.000000
		CHANNELS 3 Zrotation Yrotation Xrotation
		JOINT LeftUpLeg
		{
			OFFSET 1.363060 -1.794630 0.839290
			CHANNELS 3 Zrotation Yrotation Xrotation
			JOINT LeftLeg
			{
				OFFSET 2.448110 -6.726130 0.000000
				CHANNELS 3 Zrotation Yrotation Xrotation
				JOINT LeftFoot
				{
					OFFSET 2.562200 -7.039590 0.000000
					CHANNELS 3 Zrotation Yrotation Xrotation
					JOINT LeftToeBase
					{
						OFFSET 0.157640 -0.433110 2.322550
						CHANNELS 3 Zrotation Yrotation Xrotation
						End Site
						{
							OFFSET 0.000000 0.000000 0.000000
						}
					}
				}
			}
		}
	}
	JOINT RHipJoint
	{
		OFFSET 0.000000 0.000000 0.000000
		CHANNELS 3 Zrotation Yrotation Xrotation
		JOINT RightUpLeg
		{
			OFFSET -1.305520 -1.794630 0.839290
			CHANNELS 3 Zrotation Yrotation Xrotation
			JOINT RightLeg
			{
				OFFSET -2.542530 -6.985550 0.000000
				CHANNELS 3 Zrotation Yrotation Xrotation
				JOINT RightFoot
				{
					OFFSET -2.568260 -7.056230 0.000000
					CHANNELS 3 Zrotation Yrotation Xrotation
					JOINT RightToeBase
					{
						OFFSET -0.164730 -0.452590 2.363150
						CHANNELS 3 Zrotation Yrotation Xrotation
						End Site
						{
							OFFSET 0.000000 0.000000 0.000000
						}
					}
				}
			}
		}
	}
	JOINT LowerBack
	{
		OFFSET 0.000000 0.000000 0.000000
		CHANNELS 3 Zrotation Yrotation Xrotation
		JOINT Spine
		{
			OFFSET 0.028270 2.035590 -0.193380
			CHANNELS 3 Zrotation Yrotation Xrotation
			JOINT Spine1
			{
				OFFSET 0.056720 2.048850 -0.042750
				CHANNELS 3 Zrotation Yrotation Xrotation
				JOINT Neck
				{
					OFFSET 0.000000 0.000000 0.000000
					CHANNELS 3 Zrotation Yrotation Xrotation
					JOINT Neck1
					{
						OFFSET -0.054170 1.746240 0.172020
						CHANNELS 3 Zrotation Yrotation Xrotation
						JOINT Head
						{
							OFFSET 0.104070 1.761360 -0.123970
							CHANNELS 3 Zrotation Yrotation Xrotation
							End Site
							{
								OFFSET 0.000000 0.000000 0.000000
							}
						}
					}
				}
				JOINT LeftShoulder
				{
					OFFSET 0.000000 0.000000 0.000000
					CHANNELS 3 Zrotation Yrotation Xrotation
					JOINT LeftArm
					{
						OFFSET 3.362410 1.200890 -0.311210
						CHANNELS 3 Zrotation Yrotation Xrotation
						JOINT LeftForeArm
						{
							OFFSET 4.983000 -0.000000 -0.000000
							CHANNELS 3 Zrotation Yrotation Xrotation
							JOINT LeftHand
							{
								OFFSET 3.483560 -0.000000 -0.000000
								CHANNELS 3 Zrotation Yrotation Xrotation
								JOINT LeftFingerBase
								{
									OFFSET 0.000000 0.000000 0.000000
									CHANNELS 3 Zrotation Yrotation Xrotation
									JOINT LeftHandIndex1
									{
										OFFSET 0.715260 -0.000000 -0.000000
										CHANNELS 3 Zrotation Yrotation Xrotation
										End Site
										{
											OFFSET 0.000000 0.000000 0.000000
										}
									}
								}
								JOINT LThumb
								{
									OFFSET 0.000000 0.000000 0.000000
									CHANNELS 3 Zrotation Yrotation Xrotation
									End Site
									{
										OFFSET 0.000000 0.000000 0.000000
									}
								}
							}
						}
					}
				}
				JOINT RightShoulder
				{
					OFFSET 0.000000 0.000000 0.000000
					CHANNELS 3 Zrotation Yrotation Xrotation
					JOINT RightArm
					{
						OFFSET -3.136600 1.374050 -0.404650
						CHANNELS 3 Zrotation Yrotation Xrotation
						JOINT RightForeArm
						{
							OFFSET -5.241900 -0.000000 -0.000000
							CHANNELS 3 Zrotation Yrotation Xrotation
							JOINT RightHand
							{
								OFFSET -3.444170 -0.000000 -0.000000
								CHANNELS 3 Zrotation Yrotation Xrotation
								JOINT RightFingerBase
								{
									OFFSET 0.000000 0.000000 0.000000
									CHANNELS 3 Zrotation Yrotation Xrotation
									JOINT RightHandIndex1
									{
										OFFSET -0.622530 -0.000000 -0.000000
										CHANNELS 3 Zrotation Yrotation Xrotation
										End Site
										{
											OFFSET 0.000000 0.000000 0.000000
										}
									}
								}
								JOINT RThumb
								{
									OFFSET 0.000000 0.000000 0.000000
									CHANNELS 3 Zrotation Yrotation Xrotation
									End Site
									{
										OFFSET 0.000000 0.000000 0.000000
									}
								}
							}
						}
					}
				}
			}
		}
	}
}
MOTION
Frames: 7
Frame Time: 0.008333
23.787904 15.949160 0.336853 171.948741 -82.145675 -153.991184 -8.995488 -0.734990 4.534255 -11.294199 -5.919091 -60.149249 -1.054646 2.171601 46.415387 2.053708 7.778144 -11.922900 -0.305100 -0.000000 -12.679900 10.451513 -5.858940 1.546052 1.561827 -3.487319 11.363812 1.537557 -1.387078 12.781310 0.900002 14.690834 16.305580 5.392000 0.000000 -86.457700 -9.813756 3.671568 -7.725475 -2.660322 4.278199 -4.944217 -4.046739 4.077689 -0.635702 3.846727 -2.167119 -8.708507 -1.489143 -0.104962 -0.281263 0.000000 0.000000 0.000000 -6.546981 20.383947 2.355954 -42.318108 35.339469 -6.716825 -4.907982 -4.914484 -0.012101 11.474383 8.948148 0.918177 -0.150000 -0.060364 0.000000 0.000000 0.000000 0.000000 0.000000 0.000000 0.000000 0.309175 6.197285 0.369074 50.699273 54.126481 28.380782 0.741299 74.066670 -0.011098 -1.460763 7.048231 -0.095341 -0.002225 -0.511066 -0.000000 0.000000 0.000000 0.000000 0.000000 0.000000 0.000000 
23.588173 15.951587 0.345214 171.826395 -81.879549 -154.454773 -9.069987 -0.703642 4.135933 -11.881747 -5.018097 -59.023278 -1.055798 2.238616 47.402235 2.050858 7.788414 -12.567700 -0.447300 -0.000000 -12.694300 10.535761 -5.852424 1.431551 1.104820 -3.398186 10.256386 1.218662 -1.737485 16.788744 0.725512 15.039294 18.687928 6.186900 0.000001 -86.992401 -9.927520 3.630723 -7.236932 -2.735343 4.238942 -4.889968 -4.355170 4.049970 -0.785304 4.511050 -1.766824 -8.730494 -1.740053 -0.124231 -0.305624 0.000000 0.000000 0.000000 -7.070217 20.025552 2.476309 -43.515434 33.564699 -5.487635 -4.919601 -5.049999 -0.008383 11.167904 8.233760 0.821225 -0.132326 -0.057943 -0.000000 0.000000 0.000000 0.000000 0.000000 0.000000 0.000000 1.835261 6.969258 0.538848 52.919647 51.914820 29.263443 0.817416 73.143785 -0.012164 -1.953981 7.193518 -0.131741 0.020376 -0.509032 -0.000000 0.000000 0.000000 0.000000 0.000000 0.000000 0.000000 
23.393860 15.952592 0.354217 171.227054 -81.690039 -154.479882 -9.120984 -0.658959 3.726852 -12.537960 -4.135130 -57.782276 -1.077871 2.287861 48.262018 2.036127 7.721038 -13.284748 -0.599100 -0.000000 -12.732200 10.678997 -5.806045 1.265062 0.552471 -3.602590 8.899969 0.878152 -2.058843 21.173164 0.504368 15.028889 20.959941 6.829500 0.000001 -86.667700 -10.045683 3.551222 -6.665043 -2.804983 4.162349 -4.826548 -4.659887 3.984332 -0.971694 5.143760 -1.338702 -8.713811 -2.006185 -0.145109 -0.321664 0.000000 0.000000 0.000000 -7.561769 19.572994 2.608891 -44.741252 31.609289 -4.023869 -4.913881 -5.027815 -0.004639 10.893847 7.432322 0.722270 -0.114270 -0.056524 -0.000000 0.000000 0.000000 0.000000 0.000000 0.000000 0.000000 3.396650 7.736566 0.678315 55.042013 49.515736 29.900732 0.890460 71.979871 -0.013716 -2.498340 7.352619 -0.173166 0.041601 -0.506412 -0.000000 0.000000 0.000000 0.000000 0.000000 0.000000 0.000000 
23.204893 15.951993 0.363606 170.089041 -81.594045 -153.981391 -9.142248 -0.602587 3.322085 -13.254514 -3.320468 -56.456774 -1.115344 2.317915 49.009281 2.016755 7.603053 -14.075203 -0.758400 -0.000000 -12.772500 10.880958 -5.717360 1.053441 -0.089095 -4.076178 7.310614 0.534472 -2.346735 25.855618 0.239344 14.452866 23.020780 7.153700 -0.000000 -85.457800 -10.179007 3.426797 -6.031505 -2.870382 4.042982 -4.752018 -4.951534 3.874892 -1.171693 5.741621 -0.912577 -8.670387 -2.280080 -0.166740 -0.332514 0.000000 0.000000 0.000000 -7.989464 19.070066 2.754095 -46.024417 29.453387 -2.516907 -4.886903 -4.947601 -0.001211 10.687153 6.581530 0.626816 -0.096325 -0.055327 -0.000000 0.000000 0.000000 0.000000 0.000000 0.000000 0.000000 4.973947 8.449358 0.786042 57.050041 46.998542 30.300169 0.959849 70.528297 -0.015912 -3.111954 7.535983 -0.221525 0.061118 -0.502861 -0.000000 0.000000 0.000000 0.000000 0.000000 0.000000 0.000000 
23.020717 15.950100 0.373422 168.443548 -81.594589 -152.970344 -9.132128 -0.535151 2.936052 -14.009046 -2.607170 -55.079302 -1.162678 2.329378 49.656610 1.998796 7.458072 -14.933179 -0.922999 0.000000 -12.807100 11.131093 -5.585487 0.806660 -0.782672 -4.756036 5.520780 0.205715 -2.605214 30.743885 -0.063460 13.120407 24.740732 6.983900 0.000000 -83.369400 -10.316260 3.263937 -5.362342 -2.928898 3.886442 -4.671920 -5.223214 3.726345 -1.388615 6.285650 -0.484112 -8.586590 -2.554342 -0.188679 -0.333564 0.000000 0.000000 0.000000 -8.365501 18.463993 2.901565 -47.339414 27.089775 -0.858231 -4.844570 -4.665473 0.001784 10.514053 5.659998 0.529955 -0.078862 -0.054234 -0.000000 0.000000 0.000000 0.000000 0.000000 0.000000 0.000000 6.513531 9.091917 0.863755 58.972100 44.360106 30.440304 1.025056 68.761947 -0.018677 -3.783731 7.752840 -0.277023 0.078219 -0.498049 -0.000000 0.000000 0.000000 0.000000 0.000000 0.000000 0.000000 
22.840419 15.947484 0.383577 166.311507 -81.688352 -151.450014 -9.087584 -0.455971 2.581134 -14.783983 -2.023558 -53.673557 -1.215243 2.323346 50.210624 1.987526 7.309552 -15.844890 -1.091200 -0.000000 -12.838200 11.421316 -5.411938 0.532052 -1.498052 -5.590022 3.560110 -0.096205 -2.845883 35.753899 -0.396866 10.942710 25.972212 6.209400 -0.000000 -80.438000 -10.452260 3.067786 -4.680473 -2.980211 3.697066 -4.583548 -5.469980 3.543004 -1.593844 6.780609 -0.092184 -8.482018 -2.821436 -0.209985 -0.329801 0.000000 0.000000 0.000000 -8.674891 17.804886 3.045147 -48.691299 24.459819 0.909054 -4.785276 -4.216727 0.004121 10.384746 4.701776 0.434787 -0.062285 -0.052600 -0.000000 0.000000 0.000000 0.000000 0.000000 0.000000 0.000000 8.000497 9.611552 0.915130 60.800524 41.682993 30.336893 1.084985 66.651328 -0.022022 -4.530096 8.018815 -0.342565 0.092969 -0.491555 -0.000000 0.000000 0.000000 0.000000 0.000000 0.000000 0.000000 
22.663625 15.945054 0.394178 163.763195 -81.858695 -149.474419 -9.008635 -0.363158 2.266804 -15.556725 -1.581697 -52.260392 -1.269635 2.302542 50.671827 1.986398 7.175790 -16.788829 -1.261100 -0.000000 -12.877000 11.740226 -5.199925 0.238977 -2.195821 -6.513326 1.455057 -0.368329 -3.083133 40.804674 -0.752131 7.954442 26.556909 4.829900 -0.000000 -76.767600 -10.570970 2.850697 -4.009024 -3.022072 3.485797 -4.490347 -5.689283 3.335437 -1.781906 7.220986 0.260826 -8.355954 -3.073708 -0.230030 -0.320141 0.000000 0.000000 0.000000 -8.933682 17.078157 3.175700 -50.065906 21.559605 2.768128 -4.712417 -3.548326 0.005737 10.293126 3.686570 0.338113 -0.047088 -0.050109 -0.000000 0.000000 0.000000 0.000000 0.000000 0.000000 0.000000 9.393494 9.995383 0.944086 62.562783 38.984564 29.967879 1.137617 64.186966 -0.025780 -5.343220 8.339211 -0.418952 0.105100 -0.482976 -0.000000 0.000000 0.000000 0.000000 0.000000 0.000000 0.000000 
